<svg height="512" viewBox="0 0 512 512" width="512" xmlns="http://www.w3.org/2000/svg"><g id="BULINE"><circle cx="256" cy="256" fill="#7cc8fb" r="256"/></g><g id="Icons"><rect fill="#fff" height="411.24" rx="14.62" width="277.49" x="116.68" y="48.63"/><g fill="#3586cb"><circle cx="222.42" cy="85.5" r="24.75"/><circle cx="222.42" cy="153" r="24.75"/><circle cx="222.42" cy="220.5" r="24.75"/><circle cx="222.42" cy="288" r="24.75"/><circle cx="222.42" cy="355.5" r="24.75"/><circle cx="222.42" cy="423" r="24.75"/></g><circle cx="286.67" cy="85.5" fill="#f6c752" r="24.75"/><circle cx="286.67" cy="153" fill="#f6c752" r="24.75"/><circle cx="286.67" cy="220.5" fill="#f6c752" r="24.75"/><circle cx="286.67" cy="288" fill="#f6c752" r="24.75"/><circle cx="286.67" cy="355.5" fill="#f6c752" r="24.75"/><circle cx="286.67" cy="423" fill="#f6c752" r="24.75"/><circle cx="350.92" cy="85.5" fill="#38c487" r="24.75"/><circle cx="350.92" cy="153" fill="#38c487" r="24.75"/><circle cx="350.92" cy="220.5" fill="#38c487" r="24.75"/><circle cx="350.92" cy="288" fill="#38c487" r="24.75"/><circle cx="350.92" cy="355.5" fill="#38c487" r="24.75"/><circle cx="350.92" cy="423" fill="#38c487" r="24.75"/><path d="m394.16 420.54v24.71a14.62 14.62 0 0 1 -14.62 14.62h-248.24a14.62 14.62 0 0 1 -14.62-14.62v-382a14.62 14.62 0 0 1 14.62-14.62h26.87v357.28a14.63 14.63 0 0 0 14.62 14.63z" fill="#e2dede"/><path d="m247.17 423a24.75 24.75 0 0 1 -49.5 0q0-1.25.12-2.46h49.26q.12 1.22.12 2.46z" fill="#366fca"/><path d="m311.42 423a24.75 24.75 0 0 1 -49.5 0q0-1.25.12-2.46h49.26q.12 1.22.12 2.46z" fill="#f7bb38"/><path d="m375.67 423a24.75 24.75 0 0 1 -49.5 0q0-1.25.12-2.46h49.26q.12 1.22.12 2.46z" fill="#00b564"/><circle cx="158.17" cy="85.5" fill="#db1b1b" r="24.75"/><circle cx="158.17" cy="153" fill="#db1b1b" r="24.75"/><circle cx="158.17" cy="220.5" fill="#db1b1b" r="24.75"/><circle cx="158.17" cy="288" fill="#db1b1b" r="24.75"/><circle cx="158.17" cy="355.5" fill="#db1b1b" r="24.75"/><circle cx="158.17" cy="423" fill="#db1b1b" r="24.75"/><path d="m158.17 60.75v49.5a24.75 24.75 0 0 1 0-49.5z" fill="#c11a1a"/><path d="m158.17 128.25v49.5a24.75 24.75 0 1 1 0-49.5z" fill="#c11a1a"/><path d="m158.17 195.75v49.5a24.75 24.75 0 1 1 0-49.5z" fill="#c11a1a"/><path d="m158.17 263.25v49.5a24.75 24.75 0 1 1 0-49.5z" fill="#c11a1a"/><path d="m158.17 330.75v49.5a24.75 24.75 0 1 1 0-49.5z" fill="#c11a1a"/><path d="m182.92 423a24.75 24.75 0 1 1 -24.75-24.75v7.66a14.63 14.63 0 0 0 14.62 14.63h10q.13 1.22.13 2.46z" fill="#c11a1a"/></g></svg>