<?xml version="1.0" standalone="no"?>
<!DOCTYPE svg PUBLIC "-//W3C//DTD SVG 20010904//EN"
 "http://www.w3.org/TR/2001/REC-SVG-20010904/DTD/svg10.dtd">
<svg version="1.0" xmlns="http://www.w3.org/2000/svg"
 width="236.000000pt" height="265.000000pt" viewBox="0 0 236.000000 265.000000"
 preserveAspectRatio="xMidYMid meet">

<g transform="translate(0.000000,265.000000) scale(0.100000,-0.100000)"
fill="#000000" stroke="none">
<path d="M1070 2642 c0 -1 4 -10 9 -20 14 -28 29 -84 36 -134 8 -52 24 -64 74
-53 25 5 29 11 35 55 4 26 14 73 24 102 l18 54 -98 0 c-54 -1 -98 -2 -98 -4z"/>
<path d="M1231 2464 c0 -12 -8 -35 -16 -50 -12 -24 -15 -25 -15 -9 0 17 -7 20
-42 20 -36 0 -43 3 -49 25 -6 23 -7 23 -8 3 -1 -12 4 -34 11 -48 11 -24 13
-25 20 -8 6 13 7 11 3 -8 -2 -14 0 -41 6 -61 8 -30 13 -36 34 -33 14 1 25 -2
25 -6 0 -5 -13 -9 -29 -9 -27 0 -30 5 -51 71 -13 39 -29 73 -36 76 -22 8 -100
-44 -133 -89 -40 -54 -73 -161 -69 -222 l3 -47 90 59 c50 33 111 78 137 101
25 23 51 41 56 41 6 0 37 -22 69 -48 58 -49 114 -88 187 -132 l39 -24 -6 73
c-10 121 -70 228 -151 271 -53 29 -58 26 -86 -51 -10 -30 -19 -44 -20 -32 0
12 9 43 20 69 12 26 19 57 17 68 -4 21 -4 20 -6 0z"/>
<path d="M376 2340 c10 -115 57 -331 104 -470 72 -217 196 -430 350 -601 l63
-71 21 27 22 28 35 -18 c19 -10 51 -31 72 -48 l38 -30 40 39 39 38 -158 160
c-191 194 -283 301 -317 369 -29 59 -32 92 -8 106 15 8 9 19 -44 88 -103 134
-202 301 -249 423 -13 33 -14 30 -8 -40z m134 -446 c72 -191 196 -406 319
-551 58 -68 82 -113 45 -82 -36 30 -195 253 -250 350 -72 128 -171 369 -151
369 2 0 19 -39 37 -86z"/>
<path d="M1945 2364 c-45 -122 -114 -239 -228 -391 -63 -85 -68 -94 -53 -108
54 -55 -30 -169 -403 -548 l-255 -258 31 -30 30 -31 94 79 c122 102 199 159
226 167 17 5 26 1 39 -19 16 -25 17 -25 37 -8 10 10 47 52 82 93 223 268 354
576 410 968 19 130 16 155 -10 86z m-106 -480 c-40 -112 -115 -264 -186 -374
-72 -110 -196 -266 -201 -252 -2 7 22 42 54 79 119 140 242 351 319 549 48
123 58 122 14 -2z"/>
<path d="M1085 2194 c-38 -30 -85 -68 -102 -84 -18 -17 -38 -30 -45 -30 -22 0
-79 -40 -73 -50 10 -16 7 -192 -5 -264 l-11 -68 96 -91 96 -92 14 49 c22 73
38 212 30 262 -5 38 -9 44 -31 44 -70 0 -141 97 -84 115 38 12 139 -34 173
-79 4 -6 5 -52 1 -101 -5 -76 -4 -93 10 -104 13 -11 19 -11 32 0 13 11 15 28
9 109 l-7 97 43 32 c77 56 159 65 159 16 0 -39 -43 -82 -86 -83 -20 -1 -39 -4
-42 -7 -22 -22 -8 -211 23 -305 l15 -45 95 92 95 92 -12 58 c-6 32 -11 111
-11 175 l0 117 -36 18 c-20 10 -42 24 -50 31 -11 11 -17 10 -34 -5 -19 -18
-20 -17 -9 3 10 19 3 27 -71 86 -45 36 -83 65 -83 64 -1 0 -4 -86 -8 -191 -8
-260 -10 -262 -16 -18 l-5 212 -70 -55z"/>
<path d="M1120 1648 c-12 -8 -11 -9 6 -5 12 2 28 0 37 -4 10 -6 18 -5 22 1 4
6 16 8 28 4 12 -3 19 -3 14 2 -11 12 -91 14 -107 2z"/>
<path d="M879 1606 l-26 -23 19 -26 c23 -31 39 -34 61 -9 15 16 14 20 -5 50
-11 17 -21 32 -21 32 -1 0 -14 -11 -28 -24z"/>
<path d="M1411 1597 c-20 -32 -20 -32 -1 -52 20 -19 20 -19 49 10 l29 30 -28
22 -28 23 -21 -33z"/>
<path d="M1075 1561 c-7 -12 83 -133 96 -129 19 8 100 121 92 129 -6 6 -18 1
-32 -12 -21 -20 -23 -20 -42 -3 -18 16 -20 16 -39 -1 -20 -18 -21 -18 -44 4
-15 15 -26 19 -31 12z"/>
<path d="M510 1514 c0 -4 7 -16 17 -26 9 -10 13 -21 9 -25 -3 -4 -13 3 -22 15
-20 29 -39 28 -100 -7 -48 -28 -144 -116 -144 -132 0 -4 13 -4 29 1 49 14 43
-1 -10 -27 -68 -34 -125 -118 -144 -213 l-7 -35 28 40 c82 122 195 187 274
157 21 -8 30 -3 72 44 27 28 71 66 98 84 28 18 50 35 50 39 -1 3 -13 24 -28
46 -25 36 -33 40 -75 43 -26 2 -47 0 -47 -4z"/>
<path d="M1710 1476 c-16 -25 -30 -47 -30 -50 0 -3 24 -21 53 -39 28 -18 72
-56 97 -84 39 -43 48 -49 67 -40 33 15 105 -1 156 -33 39 -25 90 -80 135 -146
11 -17 12 -14 6 16 -17 93 -103 212 -165 225 -16 4 -27 10 -24 15 6 9 44 2 63
-13 29 -23 8 8 -40 59 -49 52 -141 114 -169 114 -7 0 -23 -10 -36 -22 -13 -12
-23 -17 -23 -11 0 6 7 16 15 23 26 21 17 30 -30 30 -41 0 -46 -3 -75 -44z"/>
<path d="M541 1304 c-12 -15 -21 -30 -21 -35 0 -5 29 -46 64 -92 63 -83 63
-84 50 -116 -7 -18 -23 -46 -35 -63 l-22 -30 -24 29 -25 28 22 -37 c25 -44 49
-154 46 -208 -2 -22 0 -40 5 -40 12 0 22 64 17 102 -4 26 2 42 33 83 21 28 48
72 59 98 l21 47 74 0 c73 0 75 1 75 24 0 14 7 31 15 40 8 8 15 17 15 20 0 3
-42 6 -94 6 l-94 0 -51 56 c-28 30 -58 68 -68 85 -21 36 -36 37 -62 3z"/>
<path d="M1737 1301 c-10 -17 -40 -55 -68 -85 l-51 -56 -94 0 c-52 0 -94 -3
-94 -7 0 -5 7 -17 15 -27 8 -11 15 -28 15 -38 0 -16 9 -18 73 -18 l74 0 19
-41 c10 -23 36 -67 58 -98 34 -48 39 -63 37 -104 -1 -26 1 -57 4 -67 9 -29 26
-24 19 5 -9 36 15 159 41 213 l24 47 -23 -28 -23 -29 -20 29 c-11 15 -28 43
-37 61 l-17 32 59 78 c78 103 76 98 52 132 -27 38 -41 38 -63 1z"/>
<path d="M923 1136 c-13 -16 -23 -37 -23 -48 0 -10 41 -63 90 -117 50 -55 90
-106 90 -114 0 -8 -9 -26 -21 -41 -22 -28 -19 -32 12 -16 25 14 49 62 49 98 0
21 -19 49 -84 118 -59 63 -85 99 -88 120 l-3 29 -22 -29z"/>
<path d="M974 1151 c-9 -10 -3 -39 11 -51 13 -11 21 -8 45 15 17 16 30 32 30
35 0 7 -79 8 -86 1z"/>
<path d="M1302 1153 c-16 -6 23 -63 43 -63 16 0 38 36 33 52 -4 12 -53 19 -76
11z"/>
<path d="M1390 1130 c0 -12 -37 -59 -85 -111 -77 -83 -85 -95 -85 -131 0 -31
7 -46 30 -70 34 -34 51 -32 26 4 -9 12 -16 29 -16 38 0 8 39 57 87 108 89 97
104 130 73 166 -17 22 -30 20 -30 -4z"/>
<path d="M1221 1098 l-34 -30 39 -34 c21 -18 42 -33 45 -34 4 0 18 15 32 34
l26 33 -33 32 c-17 17 -34 31 -36 31 -3 0 -20 -15 -39 -32z"/>
<path d="M369 1041 c-83 -35 -126 -61 -166 -103 -41 -42 -53 -76 -53 -144 0
-51 1 -54 25 -54 23 0 25 4 25 43 0 23 9 60 19 82 20 45 110 132 177 171 24
14 44 28 44 30 0 5 6 7 -71 -25z"/>
<path d="M1900 1065 c0 -2 23 -17 51 -35 120 -73 188 -163 189 -246 0 -33 4
-43 19 -47 27 -7 31 0 31 55 0 82 -41 152 -116 199 -33 20 -174 81 -174 74z"/>
<path d="M914 997 c-6 -7 -33 -33 -60 -59 -55 -52 -108 -113 -135 -154 -17
-26 -17 -30 -1 -56 17 -29 35 -39 26 -13 -4 8 -3 15 0 15 4 0 11 -12 16 -26 9
-22 13 -24 25 -14 8 7 16 29 16 49 1 20 3 28 6 19 6 -22 12 -22 34 -2 14 13
17 27 14 63 -5 43 -4 44 5 14 12 -39 19 -40 48 -10 17 18 20 31 16 62 -4 35
-3 37 6 15 16 -36 18 -36 50 -5 l29 28 -36 43 c-38 47 -42 50 -59 31z"/>
<path d="M1365 970 l-39 -40 29 -30 c35 -37 41 -37 54 -2 10 25 11 24 5 -12
-5 -33 -1 -43 23 -68 l28 -29 12 43 13 43 -5 -51 c-3 -42 0 -55 15 -69 19 -17
20 -17 29 6 9 21 10 20 9 -14 -1 -23 4 -43 15 -54 15 -15 17 -15 26 10 6 15
13 27 17 27 3 0 3 -8 0 -17 -6 -15 -4 -15 14 2 11 10 20 28 20 39 0 24 -122
171 -186 222 l-40 34 -39 -40z"/>
<path d="M674 726 c-9 -23 18 -59 72 -95 53 -35 68 -34 122 7 36 27 37 43 0
18 -43 -30 -80 -21 -136 35 -41 41 -53 48 -58 35z"/>
<path d="M1603 689 c-55 -53 -92 -62 -129 -34 -21 16 -38 20 -30 7 3 -5 23
-21 45 -36 29 -20 46 -26 62 -21 28 9 119 93 119 111 0 27 -17 21 -67 -27z"/>
<path d="M340 723 c-93 -16 -320 -91 -320 -106 0 -1 33 -1 73 1 95 4 103 -2
78 -59 -21 -45 -27 -83 -13 -77 4 2 31 12 60 23 46 17 52 22 48 41 -11 42 27
62 168 89 43 8 85 20 92 26 54 45 -62 83 -186 62z"/>
<path d="M1853 716 c-35 -16 -42 -36 -20 -55 8 -6 58 -20 113 -31 111 -22 150
-44 146 -83 -2 -21 4 -27 40 -40 24 -8 51 -18 61 -22 23 -10 22 17 -4 74 -25
57 -17 63 79 59 39 -2 72 -2 72 -1 0 2 -25 14 -56 28 -148 66 -365 101 -431
71z"/>
<path d="M537 652 c-13 -14 -41 -23 -99 -32 -84 -12 -158 -36 -158 -50 0 -14
31 -41 57 -51 31 -12 135 -12 165 0 30 11 61 77 56 120 -3 33 -3 33 -21 13z"/>
<path d="M1800 635 c0 -20 9 -53 20 -75 23 -45 53 -55 151 -48 48 3 65 10 87
31 17 17 23 30 17 36 -12 12 -111 37 -181 46 -30 4 -61 15 -73 26 l-21 20 0
-36z"/>
<path d="M1085 624 c-136 -20 -229 -39 -340 -69 -239 -66 -365 -81 -425 -50
-39 20 -39 17 14 -130 50 -141 66 -156 179 -175 101 -18 196 -8 387 40 146 37
178 42 280 42 103 0 132 -5 280 -43 146 -37 178 -42 280 -43 122 -1 203 17
232 52 14 16 98 242 98 262 0 5 -16 2 -35 -6 -69 -29 -166 -17 -405 47 -80 22
-183 46 -230 54 -89 16 -264 26 -315 19z"/>
<path d="M433 95 c0 -22 2 -30 4 -17 2 12 2 30 0 40 -3 9 -5 -1 -4 -23z"/>
<path d="M1477 123 c-10 -9 -9 -51 1 -57 5 -3 6 8 4 24 -3 21 1 29 15 33 13 3
14 5 2 6 -9 0 -19 -2 -22 -6z"/>
<path d="M1545 119 c-4 -6 -4 -13 -1 -16 3 -4 6 -1 6 6 0 8 6 11 16 7 8 -3 12
-2 9 4 -8 13 -22 13 -30 -1z"/>
<path d="M1615 95 c0 -19 5 -35 10 -35 7 0 9 15 7 35 -2 19 -7 35 -11 35 -3 0
-6 -16 -6 -35z"/>
<path d="M1674 116 c-8 -22 -1 -49 14 -52 7 -1 8 0 2 3 -17 8 -12 51 8 56 16
4 16 5 -1 6 -10 0 -20 -5 -23 -13z"/>
<path d="M1800 126 c0 -2 11 -6 25 -8 13 -3 22 -1 19 3 -5 9 -44 13 -44 5z"/>
<path d="M1888 105 c6 -32 12 -32 12 0 0 14 -4 25 -9 25 -4 0 -6 -11 -3 -25z"/>
<path d="M1940 126 c0 -2 9 -6 20 -9 11 -3 18 -1 14 4 -5 9 -34 13 -34 5z"/>
<path d="M562 90 c0 -19 2 -27 5 -17 2 9 2 25 0 35 -3 9 -5 1 -5 -18z"/>
<path d="M602 90 c0 -19 2 -27 5 -17 2 9 2 25 0 35 -3 9 -5 1 -5 -18z"/>
<path d="M800 111 c0 -6 5 -13 10 -16 6 -3 10 1 10 9 0 9 -4 16 -10 16 -5 0
-10 -4 -10 -9z"/>
<path d="M455 100 c3 -5 8 -10 11 -10 2 0 4 5 4 10 0 6 -5 10 -11 10 -5 0 -7
-4 -4 -10z"/>
<path d="M492 90 c0 -14 2 -19 5 -12 2 6 2 18 0 25 -3 6 -5 1 -5 -13z"/>
<path d="M532 85 c0 -16 2 -22 5 -12 2 9 2 23 0 30 -3 6 -5 -1 -5 -18z"/>
<path d="M702 85 c0 -16 2 -22 5 -12 2 9 2 23 0 30 -3 6 -5 -1 -5 -18z"/>
<path d="M750 101 c0 -6 4 -13 10 -16 6 -3 7 1 4 9 -7 18 -14 21 -14 7z"/>
<path d="M875 85 c0 -13 3 -21 8 -18 4 2 7 10 7 18 0 8 -3 16 -7 18 -5 3 -8
-5 -8 -18z"/>
<path d="M1218 83 c5 -21 7 -23 10 -9 2 10 0 22 -6 28 -6 6 -7 0 -4 -19z"/>
<path d="M1258 83 c5 -21 7 -23 10 -9 2 10 0 22 -6 28 -6 6 -7 0 -4 -19z"/>
<path d="M1400 94 c0 -8 5 -12 10 -9 6 4 8 11 5 16 -9 14 -15 11 -15 -7z"/>
<path d="M971 78 c0 -13 3 -17 6 -10 4 10 8 10 21 0 12 -9 11 -6 -2 10 -24 27
-26 27 -25 0z"/>
<path d="M1060 86 c0 -8 4 -17 9 -20 5 -4 7 3 4 14 -6 23 -13 26 -13 6z"/>
<path d="M1160 88 c0 -9 -6 -19 -12 -21 -10 -4 -10 -6 0 -6 14 -1 28 26 18 36
-3 4 -6 -1 -6 -9z"/>
<path d="M1504 80 c0 -13 4 -16 10 -10 7 7 7 13 0 20 -6 6 -10 3 -10 -10z"/>
<path d="M1565 90 c4 -7 2 -16 -6 -21 -11 -7 -10 -9 4 -9 19 0 23 25 5 36 -7
5 -8 3 -3 -6z"/>
<path d="M1965 88 c4 -11 0 -18 -12 -21 -15 -4 -16 -5 -1 -6 22 -1 33 18 19
32 -9 9 -11 8 -6 -5z"/>
<path d="M1181 74 c0 -11 3 -14 6 -6 3 7 2 16 -1 19 -3 4 -6 -2 -5 -13z"/>
<path d="M1436 73 c-6 -14 -5 -15 5 -6 7 7 10 15 7 18 -3 3 -9 -2 -12 -12z"/>
<path d="M1760 75 c0 -8 2 -15 4 -15 2 0 6 7 10 15 3 8 1 15 -4 15 -6 0 -10
-7 -10 -15z"/>
<path d="M637 69 c7 -7 15 -10 18 -7 3 3 -2 9 -12 12 -14 6 -15 5 -6 -5z"/>
<path d="M1888 63 c7 -3 16 -2 19 1 4 3 -2 6 -13 5 -11 0 -14 -3 -6 -6z"/>
</g>
</svg>
